<svg width="17" height="13" viewBox="0 0 17 13" fill="none" xmlns="http://www.w3.org/2000/svg">
<path d="M14.1429 7.53571C14.1429 7.51562 14.1429 7.49554 14.1328 7.47545L8.35714 2.71429L2.58147 7.47545C2.58147 7.49554 2.57143 7.51562 2.57143 7.53571V12.3571C2.57143 12.7087 2.86272 13 3.21429 13H7.07143V9.14286H9.64286V13H13.5C13.8516 13 14.1429 12.7087 14.1429 12.3571V7.53571ZM16.3828 6.84263C16.4933 6.71205 16.4732 6.50112 16.3426 6.39062L14.1429 4.5625V0.464285C14.1429 0.283482 14.0022 0.142857 13.8214 0.142857H11.8929C11.7121 0.142857 11.5714 0.283482 11.5714 0.464285V2.42299L9.12054 0.373883C8.69866 0.0223205 8.01563 0.0223205 7.59375 0.373883L0.371652 6.39062C0.241071 6.50112 0.220982 6.71205 0.331473 6.84263L0.954241 7.58594C1.00446 7.64621 1.08482 7.68638 1.16518 7.69643C1.25558 7.70647 1.33594 7.67634 1.40625 7.62612L8.35714 1.83036L15.308 7.62612C15.3683 7.67634 15.4386 7.69643 15.519 7.69643C15.529 7.69643 15.5391 7.69643 15.5491 7.69643C15.6295 7.68638 15.7098 7.64621 15.76 7.58594L16.3828 6.84263Z" fill="#9CA8B9"/>
</svg>
