<svg width="16" height="13" viewBox="0 0 16 13" fill="none" xmlns="http://www.w3.org/2000/svg">
<path d="M6.42857 12.0357C6.42857 11.6641 6.03683 11.7143 5.78571 11.7143H2.89286C2.00893 11.7143 1.28571 10.9911 1.28571 10.1071V3.03571C1.28571 2.15179 2.00893 1.42857 2.89286 1.42857H6.10714C6.55915 1.42857 6.42857 0.745535 6.42857 0.464285C6.42857 0.293526 6.2779 0.142857 6.10714 0.142857H2.89286C1.29576 0.142857 0 1.43862 0 3.03571V10.1071C0 11.7042 1.29576 13 2.89286 13H6.10714C6.55915 13 6.42857 12.317 6.42857 12.0357ZM15.75 6.57143C15.75 6.40067 15.6797 6.23996 15.5592 6.11942L10.0949 0.655133C9.97433 0.534598 9.81362 0.464285 9.64286 0.464285C9.2913 0.464285 9 0.75558 9 1.10714V4H4.5C4.14844 4 3.85714 4.29129 3.85714 4.64286V8.5C3.85714 8.85156 4.14844 9.14286 4.5 9.14286H9V12.0357C9 12.3873 9.2913 12.6786 9.64286 12.6786C9.81362 12.6786 9.97433 12.6083 10.0949 12.4877L15.5592 7.02344C15.6797 6.9029 15.75 6.74219 15.75 6.57143Z" fill="#9CA8B9"/>
</svg>
