<svg width="17" height="19" viewBox="0 0 17 19" fill="none" xmlns="http://www.w3.org/2000/svg">
<path d="M13 5.875V4.75C13 2.28906 10.9609 0.25 8.5 0.25C6.00391 0.25 4 2.28906 4 4.75V5.875H0.625V15.4375C0.625 17.0195 1.85547 18.25 3.4375 18.25H13.5625C15.1094 18.25 16.375 17.0195 16.375 15.4375V5.875H13ZM6.25 4.75C6.25 3.51953 7.23438 2.5 8.5 2.5C9.73047 2.5 10.75 3.51953 10.75 4.75V5.875H6.25V4.75ZM11.875 8.96875C11.3828 8.96875 11.0312 8.61719 11.0312 8.125C11.0312 7.66797 11.3828 7.28125 11.875 7.28125C12.332 7.28125 12.7188 7.66797 12.7188 8.125C12.7188 8.61719 12.332 8.96875 11.875 8.96875ZM5.125 8.96875C4.63281 8.96875 4.28125 8.61719 4.28125 8.125C4.28125 7.66797 4.63281 7.28125 5.125 7.28125C5.58203 7.28125 5.96875 7.66797 5.96875 8.125C5.96875 8.61719 5.58203 8.96875 5.125 8.96875Z" fill="#9CA8B9"/>
</svg>
