<svg width="21" height="19" viewBox="0 0 21 19" fill="none" xmlns="http://www.w3.org/2000/svg">
<path d="M19.6875 10.375H16.875V13.75L15.75 13.0117L14.625 13.75V10.375H11.8125C11.4961 10.375 11.25 10.6562 11.25 10.9375V17.6875C11.25 18.0039 11.4961 18.25 11.8125 18.25H19.6875C19.9688 18.25 20.25 18.0039 20.25 17.6875V10.9375C20.25 10.6562 19.9688 10.375 19.6875 10.375ZM6.1875 8.125H14.0625C14.3438 8.125 14.625 7.87891 14.625 7.5625V0.8125C14.625 0.53125 14.3438 0.25 14.0625 0.25H11.25V3.625L10.125 2.88672L9 3.625V0.25H6.1875C5.87109 0.25 5.625 0.53125 5.625 0.8125V7.5625C5.625 7.87891 5.87109 8.125 6.1875 8.125ZM8.4375 10.375H5.625V13.75L4.5 13.0117L3.375 13.75V10.375H0.5625C0.246094 10.375 0 10.6562 0 10.9375V17.6875C0 18.0039 0.246094 18.25 0.5625 18.25H8.4375C8.71875 18.25 9 18.0039 9 17.6875V10.9375C9 10.6562 8.71875 10.375 8.4375 10.375Z" fill="#9CA8B9"/>
</svg>
