<svg width="23" height="17" viewBox="0 0 23 17" fill="none" xmlns="http://www.w3.org/2000/svg">
<path d="M22.082 7.61719L20.0078 5.54297C19.5859 5.12109 19.0234 4.91016 18.4258 4.91016H17.125V1.5C17.125 0.902344 16.5977 0.375 16 0.375H1.375C0.742188 0.375 0.25 0.902344 0.25 1.5V13.3125C0.25 14.8945 1.48047 16.125 3.0625 16.125C3.97656 16.125 4.78516 15.7031 5.3125 15C5.80469 15.7031 6.61328 16.125 7.5625 16.125C9.10938 16.125 10.375 14.8945 10.375 13.3125C10.375 13.1367 10.3398 12.9609 10.3047 12.75H16.0352C16 12.9609 16 13.1367 16 13.3125C16 14.8945 17.2305 16.125 18.8125 16.125C20.3594 16.125 21.625 14.8945 21.625 13.3125C21.625 13.1367 21.5898 12.9609 21.5547 12.75H22.1875C22.4688 12.75 22.75 12.5039 22.75 12.1875V9.19922C22.75 8.60156 22.5039 8.03906 22.082 7.61719ZM3.0625 14.4375C2.42969 14.4375 1.9375 13.9453 1.9375 13.3125C1.9375 12.7148 2.42969 12.1875 3.0625 12.1875C3.66016 12.1875 4.1875 12.7148 4.1875 13.3125C4.1875 13.9453 3.66016 14.4375 3.0625 14.4375ZM7.5625 14.4375C6.92969 14.4375 6.4375 13.9453 6.4375 13.3125C6.4375 12.7148 6.92969 12.1875 7.5625 12.1875C8.16016 12.1875 8.6875 12.7148 8.6875 13.3125C8.6875 13.9453 8.16016 14.4375 7.5625 14.4375ZM17.125 6.5625H18.4258C18.5664 6.5625 18.707 6.63281 18.8125 6.73828L20.3594 8.25H17.125V6.5625ZM18.8125 14.4375C18.1797 14.4375 17.6875 13.9453 17.6875 13.3125C17.6875 12.7148 18.1797 12.1875 18.8125 12.1875C19.4102 12.1875 19.9375 12.7148 19.9375 13.3125C19.9375 13.9453 19.4102 14.4375 18.8125 14.4375Z" fill="#9CA8B9"/>
</svg>
