<svg width="23" height="17" viewBox="0 0 23 17" fill="none" xmlns="http://www.w3.org/2000/svg">
<path d="M21.6953 11.2734C21.8008 10.7812 21.8008 10.2539 21.6953 9.76172L22.6094 9.23438C22.7148 9.19922 22.75 9.05859 22.7148 8.95312C22.4688 8.17969 22.082 7.51172 21.5547 6.91406C21.4844 6.84375 21.3438 6.80859 21.2383 6.87891L20.3242 7.40625C19.9375 7.08984 19.5156 6.80859 19.0234 6.66797V5.61328C19.0234 5.47266 18.9531 5.36719 18.8477 5.36719C18.0391 5.19141 17.2656 5.19141 16.4922 5.36719C16.3867 5.36719 16.3164 5.47266 16.3164 5.61328V6.66797C15.8242 6.80859 15.4023 7.08984 15.0156 7.40625L14.1016 6.87891C13.9961 6.80859 13.8555 6.84375 13.7852 6.91406C13.2578 7.51172 12.8359 8.17969 12.625 8.95312C12.5898 9.05859 12.625 9.19922 12.7305 9.23438L13.6445 9.76172C13.5391 10.2539 13.5391 10.7812 13.6445 11.2734L12.7305 11.8008C12.625 11.8359 12.5898 11.9766 12.625 12.082C12.8359 12.8555 13.2578 13.5234 13.7852 14.1211C13.8555 14.1914 13.9961 14.2266 14.1016 14.1562L15.0156 13.6289C15.4023 13.9453 15.8242 14.2266 16.3164 14.3672V15.4219C16.3164 15.5625 16.3867 15.668 16.4922 15.668C17.3008 15.8438 18.0742 15.8438 18.8477 15.668C18.9531 15.668 19.0234 15.5625 19.0234 15.4219V14.3672C19.5156 14.2266 19.9375 13.9453 20.3242 13.6289L21.2383 14.1562C21.3438 14.2266 21.4844 14.1914 21.5547 14.1211C22.082 13.5234 22.4688 12.8555 22.7148 12.082C22.75 11.9766 22.7148 11.8359 22.6094 11.8008L21.6953 11.2734ZM17.6875 12.2227C16.7383 12.2227 15.9648 11.4492 15.9648 10.5C15.9648 9.58594 16.7383 8.8125 17.6875 8.8125C18.6016 8.8125 19.375 9.58594 19.375 10.5C19.375 11.4492 18.6016 12.2227 17.6875 12.2227ZM3.625 7.125C4.85547 7.125 5.875 6.14062 5.875 4.875C5.875 3.64453 4.85547 2.625 3.625 2.625C2.35938 2.625 1.375 3.64453 1.375 4.875C1.375 6.14062 2.35938 7.125 3.625 7.125ZM11.5 8.25C11.5352 8.25 11.6055 8.25 11.6758 8.25C11.957 7.47656 12.4141 6.77344 12.9414 6.17578C13.2227 5.89453 13.5742 5.71875 13.9609 5.71875C14.207 5.71875 14.4531 5.78906 14.6641 5.89453L14.9453 6.07031C14.9805 6.03516 14.9805 6.03516 15.0156 6.03516C15.2617 5.50781 15.4023 4.94531 15.4023 4.34766C15.4023 2.16797 13.6445 0.410156 11.4648 0.410156C9.32031 0.410156 7.5625 2.16797 7.5625 4.3125C7.5625 6.49219 9.32031 8.25 11.5 8.25ZM15.1914 15.1055C15.0859 15.0703 15.0156 15 14.9453 14.9648C14.6641 15.1406 14.418 15.3164 13.9609 15.3164C13.6094 15.3164 13.2227 15.1406 12.9766 14.8594C12.3086 14.1562 11.8164 13.3125 11.5352 12.4336C11.1836 11.2031 12.4141 10.6758 12.4492 10.6406C12.4492 10.5703 12.4492 10.4648 12.4492 10.3945L12.168 10.2188C12.0273 10.1484 11.9219 10.043 11.8164 9.9375C11.7109 9.9375 11.6055 9.9375 11.5 9.9375C10.6211 9.9375 9.8125 9.72656 9.07422 9.375H8.79297C6.54297 9.375 4.75 11.2031 4.75 13.4531V14.4375C4.75 15.3867 5.48828 16.125 6.4375 16.125H15.4023C15.2617 15.9141 15.1914 15.7031 15.1914 15.4219V15.1055ZM6.33203 8.91797C5.91016 8.53125 5.34766 8.25 4.75 8.25H2.5C1.23438 8.25 0.25 9.26953 0.25 10.5V11.625C0.25 12.2578 0.742188 12.75 1.375 12.75H3.66016C3.90625 11.0977 4.89062 9.69141 6.33203 8.91797Z" fill="#9CA8B9"/>
</svg>
